<?xml version="1.0" standalone="no"?>
<!DOCTYPE svg PUBLIC "-//W3C//DTD SVG 20010904//EN"
 "http://www.w3.org/TR/2001/REC-SVG-20010904/DTD/svg10.dtd">
<svg version="1.0" xmlns="http://www.w3.org/2000/svg"
 width="1464.000000pt" height="1680.000000pt" viewBox="0 0 1464.000000 1680.000000"
 preserveAspectRatio="xMidYMid meet">
<metadata>
Created by potrace 1.16, written by Peter Selinger 2001-2019
</metadata>
<g transform="translate(0.000000,1680.000000) scale(0.100000,-0.100000)"
fill="#000000" stroke="none">
<path d="M7985 15954 c-11 -3 -37 -12 -58 -20 -20 -8 -50 -14 -65 -14 -15 0
-40 -7 -57 -16 -47 -24 -150 -64 -167 -64 -9 0 -21 -7 -28 -15 -7 -8 -29 -19
-50 -25 -21 -6 -41 -17 -44 -25 -3 -9 -18 -15 -37 -15 -79 0 -233 -102 -319
-210 -79 -101 -87 -104 -146 -64 -59 39 -63 48 -57 123 5 56 2 70 -14 90 -43
52 -143 7 -143 -65 0 -30 46 -135 62 -142 17 -8 89 -59 116 -83 27 -25 29 -31
24 -78 -4 -44 -1 -57 23 -91 15 -22 33 -40 40 -40 6 0 20 -9 30 -20 20 -22
172 -126 215 -148 14 -6 43 -22 65 -35 22 -13 71 -40 109 -60 38 -20 74 -41
80 -46 6 -5 52 -30 101 -56 50 -27 93 -53 97 -60 4 -7 36 -24 70 -39 35 -15
73 -32 85 -38 29 -14 43 -3 43 38 0 35 -28 74 -53 74 -7 0 -31 15 -53 33 -21
18 -65 46 -96 62 -66 32 -70 43 -27 79 48 40 85 35 105 -14 14 -34 21 -40 45
-40 26 0 29 3 29 35 0 27 -7 40 -35 62 -32 25 -35 33 -35 79 0 41 -5 57 -26
79 -26 28 -26 28 -152 21 -115 -6 -168 1 -151 18 7 8 190 73 252 91 26 7 53
18 60 23 7 5 26 14 44 20 26 9 127 71 188 116 26 19 45 -2 46 -51 2 -86 -1
-105 -40 -276 -13 -55 -21 -124 -21 -185 -1 -58 -7 -113 -15 -137 -19 -53 -19
-65 3 -65 23 0 52 30 52 55 0 10 9 36 19 59 22 47 46 118 65 191 7 28 18 60
24 72 7 12 12 31 12 43 0 12 11 45 24 73 21 45 25 66 24 147 -1 72 3 103 16
129 28 53 45 134 52 240 7 98 7 98 -36 142 -42 44 -42 44 -159 46 -64 1 -125
-1 -136 -3z m253 -30 c14 -4 22 -14 22 -29 0 -24 -17 -35 -55 -35 -18 0 -22
-4 -18 -19 15 -59 -83 -208 -177 -269 -14 -9 -43 -31 -65 -49 -22 -17 -52 -37
-65 -43 -14 -6 -43 -22 -65 -35 -22 -14 -51 -30 -65 -36 -14 -6 -43 -19 -65
-29 -106 -49 -132 -60 -144 -60 -6 0 -24 -8 -38 -17 -19 -13 -47 -18 -94 -18
-50 0 -72 5 -86 18 -11 9 -26 17 -35 17 -8 0 -27 9 -41 20 -14 11 -30 20 -35
20 -14 0 -72 50 -72 62 0 37 147 209 190 223 11 3 20 10 20 15 0 5 15 14 34
20 19 6 40 18 46 26 7 7 21 14 32 14 10 0 38 8 61 19 23 10 57 22 75 26 17 3
32 11 32 15 0 5 17 14 39 20 21 5 44 17 51 25 7 8 28 15 47 15 19 0 53 8 76
19 23 10 66 22 96 25 30 4 63 12 75 18 37 20 178 34 224 22z m-1114 -623 c10
-11 28 -22 42 -25 46 -12 29 -36 -25 -36 -53 0 -81 17 -81 50 0 32 39 39 64
11z m171 -97 c72 -25 167 -65 192 -81 18 -12 73 -94 73 -109 0 -12 -43 0 -90
25 -30 17 -82 44 -115 61 -127 67 -145 81 -145 114 0 20 -2 20 85 -10z M7972
15347 c-46 -46 -54 -77 -22 -77 35 0 95 75 84 104 -9 23 -15 21 -62 -27z
M5475 14879 c-16 -5 -39 -17 -50 -27 -23 -19 -65 -110 -65 -140 0 -32 -25 -44
-82 -40 -65 4 -75 -12 -16 -27 32 -8 45 -16 52 -36 10 -29 9 -30 -32 -104 -35
-64 -55 -67 -110 -15 -24 22 -47 40 -51 40 -23 0 -81 75 -81 105 0 41 -16 55
-61 55 -84 0 -112 -36 -84 -107 8 -21 19 -72 24 -113 9 -83 33 -232 56 -355
21 -111 32 -390 16 -408 -6 -8 -29 -17 -51 -21 -46 -7 -70 -36 -70 -83 0 -50
16 -80 47 -88 15 -3 35 -13 44 -21 20 -18 79 -29 111 -20 28 7 88 62 88 80 0
7 -16 33 -35 57 -19 24 -35 49 -35 55 0 7 -11 19 -25 28 -24 16 -24 18 -18
113 3 54 0 220 -7 368 -18 373 -18 349 4 353 11 2 29 -7 43 -22 13 -14 27 -26
31 -26 15 0 113 -105 118 -127 4 -13 0 -33 -8 -46 -9 -12 -30 -56 -48 -97 -18
-41 -44 -83 -57 -93 -57 -45 -46 -107 29 -167 46 -38 106 -49 162 -30 35 11
126 102 126 126 0 6 6 17 14 23 12 10 17 8 26 -8 6 -12 24 -28 40 -36 63 -33
39 35 -29 82 -18 12 -51 45 -74 73 -23 29 -54 58 -69 66 -28 14 -34 25 -22 37
11 11 57 -14 106 -58 65 -58 134 -105 156 -105 10 0 34 -9 55 -20 20 -11 44
-20 52 -20 23 0 135 -54 132 -63 -3 -10 -103 -47 -125 -47 -8 0 -26 -8 -40
-18 -38 -26 -169 -82 -191 -82 -10 0 -42 -16 -71 -35 -29 -19 -61 -35 -72 -35
-10 0 -38 -10 -61 -22 -23 -12 -48 -24 -56 -28 -8 -4 -17 -12 -19 -18 -6 -19
46 -14 92 7 42 20 117 46 172 60 18 5 42 16 55 25 13 9 35 16 49 16 14 0 42 9
63 20 20 11 47 20 60 20 12 0 31 6 42 14 11 7 38 16 60 20 21 4 52 14 67 22
15 8 49 19 77 25 27 6 68 24 91 40 28 20 48 28 61 24 44 -14 71 41 50 98 -18
48 -140 153 -346 300 -31 23 -33 47 -2 47 12 0 40 9 62 20 22 11 44 20 50 20
5 0 33 12 60 25 28 14 56 25 63 25 7 0 23 6 35 14 12 8 42 17 67 21 25 4 54
13 65 20 11 7 45 16 75 20 30 4 66 13 80 20 14 7 59 16 100 20 41 3 107 15
145 25 39 10 104 21 146 24 81 6 109 13 109 27 0 19 -259 14 -340 -7 -30 -7
-90 -18 -133 -24 -43 -5 -86 -14 -95 -19 -9 -5 -37 -12 -62 -16 -25 -3 -71
-15 -103 -26 -31 -10 -65 -19 -75 -19 -10 0 -27 -7 -38 -15 -10 -8 -27 -15
-37 -15 -10 0 -48 -14 -85 -31 -37 -18 -86 -40 -110 -50 -23 -10 -45 -25 -48
-34 -8 -21 -36 -19 -67 5 -14 11 -33 23 -44 27 -10 5 -48 28 -85 52 -70 46
-85 74 -54 100 8 7 17 23 20 36 4 14 24 51 46 83 57 83 39 110 -55 81z m-5
-339 c11 -11 23 -20 27 -20 8 0 140 -88 164 -110 10 -8 54 -42 99 -75 104 -77
200 -167 200 -188 0 -19 -49 -24 -66 -7 -6 6 -32 16 -60 24 -70 20 -154 51
-189 70 -16 9 -37 16 -45 16 -32 0 -170 65 -223 104 -32 24 -31 64 2 121 10
17 21 43 25 58 8 33 37 36 66 7z m-160 -405 c7 -8 12 -36 12 -63 -2 -74 -60
-107 -113 -63 -19 16 -21 21 -9 25 8 3 27 10 42 15 34 13 49 58 24 76 -9 7
-16 15 -16 19 0 12 48 6 60 -9z M8004 14626 c-3 -8 4 -34 15 -59 12 -25 21
-53 21 -62 0 -9 6 -29 14 -43 77 -147 128 -276 120 -308 -3 -12 -1 -25 5 -28
26 -16 11 -73 -30 -120 -22 -25 -45 -46 -51 -46 -34 0 -177 -157 -178 -196 -1
-60 223 -114 293 -70 12 8 39 17 61 21 21 3 55 15 75 26 20 10 45 19 57 19 12
0 27 7 34 15 7 8 27 17 46 21 51 9 230 191 241 244 6 34 -44 74 -106 84 -24 3
-56 13 -72 21 -35 19 -79 19 -149 0 -74 -20 -96 -4 -155 110 -8 17 -40 71 -70
120 -30 50 -55 96 -55 103 0 8 -9 25 -20 39 -11 14 -20 32 -20 41 0 23 -40 82
-56 82 -8 0 -17 -6 -20 -14z m569 -552 c25 -7 21 -20 -18 -68 -19 -24 -35 -47
-35 -52 0 -14 -57 -62 -83 -70 -12 -4 -33 -15 -47 -24 -80 -55 -164 -100 -185
-100 -9 0 -28 -6 -43 -14 -33 -17 -100 -8 -115 16 -8 12 -6 26 7 55 19 42 107
143 126 143 6 0 26 -17 45 -37 29 -31 38 -36 52 -27 29 17 83 106 83 135 0 32
15 46 55 52 31 5 127 -1 158 -9z M4705 14089 c-36 -12 -114 -46 -135 -60 -8
-5 -26 -14 -40 -20 -32 -13 -120 -57 -140 -70 -8 -5 -26 -14 -40 -19 -14 -6
-43 -21 -65 -35 -22 -13 -51 -30 -65 -37 -248 -128 -621 -495 -724 -713 -15
-33 -33 -69 -38 -80 -6 -11 -20 -53 -32 -95 -24 -86 -31 -325 -10 -351 6 -8
15 -32 18 -54 4 -22 13 -49 20 -60 7 -11 16 -32 20 -47 3 -15 17 -44 31 -65
50 -77 91 -134 113 -159 12 -14 22 -29 22 -34 0 -14 179 -189 238 -232 30 -22
62 -48 71 -57 26 -26 96 -71 109 -71 7 0 12 -4 12 -9 0 -10 19 -21 163 -92
131 -64 186 -89 200 -89 7 0 29 -9 50 -20 20 -11 43 -20 50 -20 7 0 28 -8 47
-19 19 -10 57 -21 85 -26 27 -4 58 -13 69 -21 11 -8 30 -14 41 -14 11 0 43
-12 70 -25 28 -14 58 -25 68 -25 10 0 28 -5 40 -12 12 -6 47 -17 77 -24 30 -7
69 -17 85 -22 29 -10 50 -15 230 -51 50 -10 110 -23 135 -29 75 -19 210 -44
290 -54 41 -5 95 -15 120 -23 25 -7 70 -16 101 -20 31 -3 81 -13 110 -20 30
-8 70 -15 89 -15 19 0 64 -7 100 -15 36 -8 110 -19 165 -25 55 -6 138 -18 185
-27 122 -24 842 -24 940 -1 36 9 106 19 155 23 50 4 117 13 150 20 33 8 94 17
135 21 41 4 92 13 114 20 58 21 96 18 96 -5 0 -11 -5 -23 -10 -26 -6 -4 -17
-21 -25 -38 -8 -18 -20 -41 -27 -52 -44 -69 -80 -123 -97 -145 -12 -14 -21
-35 -21 -48 0 -38 60 -27 73 13 6 16 16 36 24 43 7 7 13 19 13 26 0 7 9 21 19
30 11 10 22 29 25 42 4 14 12 24 19 21 15 -5 10 -46 -7 -67 -16 -18 -38 -94
-40 -134 -1 -24 7 -36 42 -63 51 -38 132 -131 132 -150 0 -31 -60 -16 -205 52
-38 18 -88 38 -109 45 -107 34 -246 141 -246 189 0 16 98 29 138 18 21 -6 51
-7 67 -3 25 6 27 9 13 23 -9 8 -36 16 -60 18 -25 1 -55 6 -66 9 -44 14 -162
-44 -162 -80 0 -48 153 -174 300 -248 30 -15 78 -40 106 -56 32 -17 74 -31
110 -35 32 -3 88 -11 123 -18 63 -11 63 -11 93 22 34 38 32 55 -18 120 -34 44
-113 105 -168 129 -26 12 -28 16 -23 53 3 22 12 48 20 57 9 9 19 31 23 47 3
17 12 37 19 45 7 8 16 26 20 40 4 14 13 32 20 40 7 8 16 26 20 39 4 13 13 31
21 40 7 9 20 24 27 34 12 17 74 39 207 72 85 21 241 75 293 101 16 8 34 14 40
14 6 0 30 9 54 20 77 36 128 59 153 70 14 6 43 21 65 35 22 13 55 31 73 40 17
8 32 19 32 23 0 4 13 13 29 20 37 16 138 124 173 183 27 47 48 149 30 149 -16
0 -42 -30 -42 -48 -1 -59 -140 -197 -290 -289 -66 -40 -222 -113 -242 -113 -8
0 -19 -5 -25 -11 -12 -12 -88 -41 -166 -64 -26 -7 -53 -18 -60 -23 -7 -5 -32
-13 -56 -17 -24 -4 -58 -13 -75 -20 -92 -37 -152 -22 -110 28 11 12 33 49 49
82 17 33 33 62 36 65 3 3 12 17 20 32 16 31 73 72 115 82 16 4 48 16 72 27 23
10 63 28 90 39 26 12 60 28 75 35 16 8 34 15 40 15 7 0 35 11 62 25 28 13 55
25 61 25 7 0 43 15 80 34 38 19 113 56 167 82 125 60 153 97 107 137 -11 9
-20 24 -20 32 0 8 -27 43 -61 76 -33 34 -58 67 -55 75 3 7 33 31 68 53 35 23
70 46 78 51 8 6 25 16 37 23 123 68 192 125 179 146 -9 14 -53 14 -61 1 -3 -5
-27 -20 -53 -33 -67 -34 -212 -129 -251 -166 -37 -35 -80 -41 -106 -15 -43 44
-323 194 -360 194 -5 0 -28 9 -52 20 -24 11 -62 29 -86 40 -24 11 -49 20 -56
20 -6 0 -22 6 -34 14 -12 8 -42 17 -67 21 -25 4 -57 14 -72 21 -32 16 -131 19
-159 4 -24 -13 -25 -68 -5 -167 7 -37 17 -108 21 -158 3 -49 13 -114 21 -145
8 -30 17 -86 20 -125 3 -38 12 -91 20 -116 35 -109 36 -318 1 -357 -8 -9 -18
-31 -22 -49 -3 -17 -12 -37 -20 -43 -8 -6 -17 -24 -20 -40 -3 -16 -12 -31 -19
-33 -8 -3 -17 -18 -20 -34 -11 -44 -54 -83 -92 -83 -18 0 -45 -5 -61 -11 -15
-6 -77 -17 -138 -25 -60 -8 -137 -18 -170 -24 -33 -5 -129 -16 -213 -25 -84
-8 -157 -17 -162 -20 -16 -10 -530 -6 -635 5 -55 6 -152 15 -215 20 -63 5
-131 13 -150 19 -19 5 -80 14 -135 21 -55 6 -125 18 -155 25 -30 8 -86 17
-123 21 -38 3 -83 12 -100 19 -18 7 -62 15 -100 19 -37 4 -80 11 -95 17 -15 6
-61 17 -102 24 -132 23 -244 46 -290 61 -25 7 -67 18 -95 23 -27 5 -84 19
-125 30 -130 36 -214 59 -245 70 -16 5 -70 21 -120 36 -80 24 -137 45 -320
116 -28 10 -54 19 -59 19 -15 0 -224 101 -296 143 -368 214 -592 473 -630 727
-11 75 -11 218 0 260 21 79 67 202 91 240 5 8 13 25 19 38 5 12 14 28 20 35 6
6 24 30 40 52 89 119 201 232 335 338 33 26 67 53 75 60 27 22 194 132 220
145 14 7 43 23 65 36 22 13 108 58 190 100 226 116 230 119 233 144 4 25 -19
28 -73 11z m3751 -1468 c13 -10 45 -22 71 -26 27 -4 55 -13 63 -20 8 -7 31
-15 51 -19 21 -4 42 -13 49 -21 7 -8 18 -15 24 -15 6 0 28 -9 49 -20 20 -11
42 -20 49 -20 16 0 273 -127 313 -154 17 -12 32 -22 34 -23 13 -8 -26 -33 -52
-33 -21 0 -39 -10 -63 -35 -35 -38 -58 -43 -83 -21 -9 8 -46 30 -84 50 -37 19
-113 66 -168 103 -56 37 -108 73 -116 78 -9 6 -34 26 -56 45 -105 91 -140 127
-133 138 10 17 24 15 52 -7z m14 -150 c27 -27 68 -63 92 -79 97 -69 273 -187
283 -191 33 -12 103 -66 98 -75 -24 -43 -33 -45 -71 -19 -53 36 -141 30 -195
-12 -36 -29 -97 -135 -97 -169 0 -62 80 -126 158 -126 79 0 67 -22 -31 -54
-63 -21 -94 -38 -130 -71 -42 -40 -107 -145 -107 -174 0 -6 -7 -11 -15 -11
-28 0 -13 66 16 73 16 4 18 11 13 31 -4 16 -1 35 9 49 30 47 41 154 22 242 -9
44 -22 121 -30 172 -7 50 -16 96 -20 102 -3 7 -13 51 -20 99 -8 48 -21 120
-30 161 -15 68 -15 101 0 101 3 0 28 -22 55 -49z m837 -288 c62 -59 81 -91 58
-99 -25 -10 -104 2 -123 19 -9 8 -32 18 -50 22 -33 7 -59 54 -34 63 7 2 22 12
34 22 36 30 60 24 115 -27z m-205 -100 c65 -33 83 -40 111 -47 15 -3 27 -11
27 -16 0 -13 -67 -45 -109 -54 -19 -3 -43 -13 -52 -22 -10 -9 -39 -19 -65 -22
-47 -5 -47 -5 -40 24 4 16 8 36 10 44 22 107 48 128 118 93z m-356 -188 c-1
-5 -11 -11 -22 -13 -25 -4 -59 32 -51 52 5 13 11 12 41 -7 19 -12 34 -26 32
-32z m124 -75 c0 -5 -7 -10 -15 -10 -8 0 -15 5 -15 10 0 6 7 10 15 10 8 0 15
-4 15 -10z m-433 -370 c-4 -16 -16 -39 -27 -50 -11 -11 -20 -24 -20 -30 0 -5
-4 -10 -10 -10 -16 0 -12 37 5 44 8 3 15 13 15 21 0 23 19 55 32 55 6 0 8 -11
5 -30z m-127 -245 c0 -14 -4 -25 -10 -25 -5 0 -10 11 -10 25 0 14 5 25 10 25
6 0 10 -11 10 -25z m-40 -70 c0 -14 -4 -25 -9 -25 -12 0 -19 21 -13 38 8 21
22 13 22 -13z M3686 13805 c-106 -63 -455 -417 -456 -462 0 -7 -4 -13 -10 -13
-5 0 -17 -15 -25 -32 -9 -18 -27 -51 -40 -73 -30 -48 -45 -82 -45 -99 0 -6 -5
-17 -12 -24 -11 -11 -29 -96 -50 -248 -11 -75 -10 -87 10 -146 12 -35 22 -76
22 -90 0 -14 9 -37 20 -51 11 -14 20 -34 20 -44 0 -19 18 -43 32 -43 15 0 8
60 -10 98 -19 38 -49 273 -37 291 3 6 10 46 16 91 5 45 16 92 23 104 8 11 17
35 21 51 3 17 12 37 20 45 7 8 16 25 20 38 6 21 76 131 103 163 7 8 22 26 35
40 12 15 31 39 42 55 21 31 117 127 268 269 53 50 97 93 97 98 0 13 -24 6 -64
-18z M5111 13706 c-9 -11 -7 -15 10 -19 26 -7 62 9 54 24 -9 14 -51 11 -64 -5z
M4865 13420 c-9 -17 -20 -56 -26 -88 -6 -31 -17 -67 -25 -79 -8 -12 -14 -28
-14 -36 0 -19 -89 -192 -133 -258 -20 -31 -37 -59 -37 -63 0 -9 -42 -45 -53
-46 -4 0 -20 8 -34 17 -49 32 -97 45 -190 49 -90 4 -94 3 -124 -24 -26 -23
-31 -35 -31 -70 1 -50 29 -90 124 -175 90 -81 89 -81 118 -95 14 -7 43 -24 65
-37 22 -14 51 -29 65 -35 14 -5 32 -14 40 -20 94 -59 107 -65 156 -65 102 0
156 102 98 188 -15 23 -33 47 -39 52 -6 6 -43 50 -83 99 -82 100 -82 106 -23
171 20 22 49 61 65 88 17 26 33 47 38 47 4 0 14 12 23 28 9 15 24 41 35 57 26
39 80 153 80 169 0 6 9 28 20 48 18 33 18 39 4 53 -8 8 -23 15 -32 15 -10 0
-23 9 -30 20 -18 29 -39 25 -57 -10z m-500 -575 c0 -42 37 -125 57 -125 6 0
21 -12 34 -26 19 -20 32 -25 61 -22 51 4 55 30 10 72 -36 34 -57 76 -37 76 60
0 337 -292 309 -326 -17 -21 -35 -17 -107 24 -37 20 -93 51 -124 67 -32 17
-58 33 -58 37 0 3 -21 18 -47 33 -60 35 -168 145 -177 180 -9 36 10 57 48 53
29 -3 31 -6 31 -43z M7425 12670 c-27 -4 -97 -13 -155 -19 -58 -7 -121 -18
-140 -25 -19 -8 -60 -17 -90 -21 -30 -4 -62 -11 -71 -16 -9 -5 -45 -15 -80
-22 -35 -8 -77 -19 -94 -25 -62 -23 -132 -44 -185 -57 -70 -18 -147 -43 -185
-60 -16 -8 -46 -18 -65 -24 -55 -16 -145 -48 -166 -59 -19 -11 -89 -43 -134
-61 -14 -6 -32 -15 -40 -20 -8 -6 -42 -21 -75 -36 -33 -14 -67 -30 -75 -35 -8
-5 -46 -25 -85 -45 -38 -21 -88 -48 -110 -61 -22 -13 -53 -30 -70 -39 -16 -9
-48 -27 -70 -40 -22 -14 -52 -31 -67 -37 -16 -7 -28 -16 -28 -20 0 -4 -14 -15
-32 -24 -17 -9 -36 -20 -42 -25 -35 -30 -129 -99 -135 -99 -15 0 -111 -98
-111 -113 0 -23 16 -21 48 4 155 119 196 149 207 149 8 0 18 6 22 13 7 13 26
24 93 59 14 7 28 18 33 25 4 6 21 14 38 18 17 4 33 13 36 20 2 8 18 17 34 20
16 4 32 11 35 17 4 5 21 16 38 24 17 8 38 19 46 24 8 6 26 14 40 20 14 5 32
14 40 19 8 5 42 21 75 36 33 15 67 31 75 36 8 5 26 13 40 19 14 5 38 16 53 25
16 8 34 15 40 15 7 0 28 8 47 19 19 10 53 21 75 25 22 4 45 11 50 16 12 10
109 45 178 65 26 7 53 18 60 23 7 5 30 13 52 17 21 3 51 12 65 20 14 7 43 16
65 19 22 4 50 14 62 22 13 8 44 17 70 21 27 3 60 12 74 19 14 7 50 16 80 20
30 4 68 12 84 19 17 7 57 15 90 19 33 4 92 13 130 21 118 24 368 38 537 30
160 -7 222 -2 215 18 -2 6 -19 15 -38 20 -19 5 -40 14 -48 20 -17 14 -457 20
-536 7z M3165 12443 c8 -34 13 -39 25 -27 13 13 1 54 -17 54 -12 0 -13 -7 -8
-27z M7400 12430 c-36 -5 -83 -13 -105 -19 -22 -6 -65 -11 -95 -11 -30 0 -77
-7 -105 -16 -27 -9 -81 -20 -118 -25 -37 -5 -78 -15 -90 -24 -12 -8 -36 -15
-54 -15 -17 0 -44 -5 -60 -11 -26 -10 -27 -11 -9 -21 23 -13 118 -3 156 17 16
9 56 15 90 15 33 0 77 7 97 15 20 8 93 19 162 24 69 5 139 14 154 20 16 6 98
11 190 11 169 0 201 6 171 31 -20 17 -277 23 -384 9z M7810 12391 c0 -14 27
-21 76 -21 51 0 59 15 13 24 -45 9 -89 7 -89 -3z M4745 11384 c-70 -37 -115
-72 -192 -152 -46 -46 -83 -90 -83 -98 0 -8 -4 -14 -10 -14 -5 0 -10 -7 -10
-15 0 -8 5 -15 10 -15 6 0 10 4 10 10 0 5 11 12 25 16 14 3 25 10 25 14 0 4
34 33 75 65 41 31 85 69 98 84 67 77 130 91 135 31 5 -67 -101 -275 -208 -405
-70 -85 -86 -100 -95 -85 -3 6 -24 19 -45 30 -35 18 -39 23 -44 72 -10 84 -10
112 -1 132 7 17 5 18 -21 12 -16 -4 -69 -11 -118 -15 -90 -8 -90 -8 -142 -67
-50 -56 -53 -58 -71 -42 -10 9 -29 22 -43 28 -14 6 -36 17 -48 24 -34 19 -165
30 -191 16 -49 -26 -8 -60 71 -60 50 0 168 -38 185 -60 7 -8 12 -29 11 -46 -2
-28 6 -45 47 -100 7 -10 1 -23 -22 -46 -79 -84 -101 -154 -69 -216 29 -56 95
-75 177 -51 32 10 42 9 64 -5 16 -11 62 -20 123 -26 53 -5 119 -16 146 -25 27
-8 82 -15 122 -15 48 0 91 -7 126 -20 29 -10 74 -24 99 -29 87 -19 139 -48
154 -85 14 -33 91 -106 113 -106 6 0 23 -10 39 -22 86 -69 138 -61 77 11 -25
31 -25 31 -3 71 23 40 23 40 -17 87 -23 26 -55 52 -75 58 -32 11 -34 15 -41
71 -4 32 -14 75 -21 94 -16 39 -45 148 -53 195 -3 17 -14 77 -24 135 -45 247
-54 311 -58 422 -4 116 -4 118 -32 138 -36 25 -149 27 -195 4z m150 -345 c4
-6 13 -56 21 -112 15 -110 27 -177 50 -272 8 -33 21 -87 28 -120 7 -33 21 -84
32 -112 23 -64 14 -80 -38 -65 -90 29 -148 42 -203 48 -33 3 -73 10 -90 15
-16 5 -115 14 -220 20 -104 6 -191 12 -192 12 -10 11 14 57 33 61 42 11 144
88 222 168 89 91 107 98 97 36 -4 -24 -7 -45 -7 -48 -2 -65 26 -102 96 -125
46 -16 51 -16 82 1 21 12 34 26 34 39 1 11 8 38 16 60 32 84 43 137 33 162
-10 26 -65 54 -95 48 -65 -13 -94 -13 -94 0 0 7 9 16 19 20 18 5 71 72 119
147 17 28 45 37 57 17z m-525 -214 c0 -9 -7 -18 -16 -22 -18 -7 -39 11 -30 26
11 17 46 13 46 -4z m6 -115 c19 0 24 -5 24 -27 0 -48 -146 -153 -263 -190 -21
-7 -57 23 -57 48 0 10 11 30 25 45 14 15 25 30 25 33 0 3 16 19 36 35 47 38
121 66 158 60 16 -2 39 -4 52 -4z m416 -55 c15 -34 -8 -61 -46 -51 -20 5 -26
13 -26 35 0 34 6 41 37 41 15 0 27 -9 35 -25z m368 -415 c12 -23 6 -40 -15
-40 -17 0 -38 36 -30 50 10 17 34 11 45 -10z M3954 10238 c-8 -18 -18 -40 -23
-48 -65 -107 -84 -440 -35 -580 19 -54 61 -149 74 -170 6 -8 14 -25 20 -37 33
-77 153 -210 275 -304 115 -89 261 -171 510 -284 112 -51 146 -65 159 -65 8 0
18 -4 21 -10 3 -5 30 -17 60 -26 30 -8 57 -19 60 -24 2 -4 25 -11 50 -14 24
-4 47 -11 50 -16 3 -5 31 -14 63 -20 31 -7 67 -18 79 -26 12 -8 33 -14 45 -14
13 -1 41 -8 63 -16 22 -9 63 -20 90 -25 28 -6 68 -16 90 -24 22 -7 65 -17 95
-20 30 -3 60 -11 67 -16 6 -6 54 -17 105 -24 51 -7 116 -18 143 -25 52 -11
139 -5 130 10 -3 5 -27 12 -53 16 -26 4 -59 13 -74 21 -16 7 -61 18 -101 23
-40 5 -86 16 -102 24 -17 9 -44 16 -62 16 -18 0 -54 8 -80 19 -26 10 -72 22
-100 26 -29 4 -55 11 -58 15 -3 5 -31 14 -63 20 -31 6 -69 17 -83 25 -14 8
-46 17 -70 21 -24 4 -53 13 -64 20 -11 7 -37 16 -58 19 -20 4 -54 16 -74 26
-21 11 -44 19 -53 19 -9 0 -25 7 -36 15 -10 8 -25 15 -33 15 -15 0 -47 15
-251 116 -170 84 -265 135 -282 152 -6 6 -16 12 -22 12 -5 0 -24 11 -42 25
-18 14 -37 25 -43 25 -6 0 -11 4 -11 10 0 5 -13 16 -29 25 -85 43 -223 212
-280 340 -12 28 -27 59 -33 69 -44 80 -74 333 -48 401 6 15 15 59 21 98 6 40
18 80 26 89 9 9 18 38 20 63 5 41 4 45 -16 45 -15 0 -27 -10 -37 -32z M5330
10026 c0 -8 7 -16 15 -20 8 -3 15 -11 15 -17 0 -6 18 -28 39 -49 21 -21 42
-48 46 -60 6 -17 12 -20 36 -15 31 7 38 -5 15 -24 -16 -13 -10 -47 9 -55 21
-8 39 -74 27 -100 -53 -111 -92 -229 -92 -280 0 -108 121 -172 202 -107 7 6
51 40 98 77 114 90 190 171 253 268 81 124 87 139 87 198 0 122 -134 145 -326
57 -23 -11 -44 -19 -49 -19 -4 0 -18 -9 -32 -20 -28 -22 -68 -26 -78 -10 -6 9
-35 30 -106 75 -37 23 -71 49 -106 81 -40 37 -53 42 -53 20z m225 -205 c3 -11
12 -22 20 -25 20 -7 19 -36 0 -36 -9 0 -18 7 -21 15 -4 8 -12 15 -19 15 -15 0
-24 19 -17 38 7 19 30 14 37 -7z m426 9 c29 -16 26 -80 -6 -114 -14 -15 -25
-33 -25 -39 0 -7 -8 -20 -17 -29 -10 -9 -27 -28 -38 -43 -16 -20 -94 -84 -180
-147 -5 -5 -36 -28 -67 -53 -66 -52 -85 -56 -94 -17 -3 15 -10 38 -15 51 -12
30 25 162 53 188 18 16 22 16 65 1 43 -15 46 -15 64 3 24 24 24 43 -1 98 -24
53 -22 57 37 66 26 4 67 15 92 25 52 21 103 25 132 10z M7284 9704 c-27 -26
-65 -56 -84 -69 -45 -29 -109 -94 -121 -123 -9 -24 -54 -46 -71 -36 -47 29
-284 50 -382 34 -33 -6 -100 -17 -147 -24 -47 -7 -97 -20 -110 -29 -13 -8 -35
-17 -49 -21 -14 -3 -38 -17 -55 -30 -29 -23 -29 -25 -16 -58 7 -18 18 -46 25
-63 11 -28 43 -81 126 -205 20 -30 56 -84 80 -120 66 -99 74 -111 111 -165 78
-114 162 -318 162 -395 0 -92 -11 -216 -22 -250 -14 -43 -14 -107 -1 -115 5
-3 10 -20 10 -38 0 -18 0 -41 1 -52 0 -11 -5 -39 -12 -63 -11 -36 -11 -44 3
-58 14 -14 18 -14 46 0 16 8 32 23 36 32 5 14 16 15 64 10 116 -14 250 -92
215 -127 -14 -14 -551 -13 -568 1 -23 19 -18 35 23 66 54 40 122 112 122 129
0 16 -16 21 -22 7 -1 -5 -32 -22 -68 -39 -80 -38 -146 -94 -165 -139 -14 -34
-14 -34 -207 -36 -106 -2 -222 -3 -258 -4 -36 -1 -159 -2 -275 -4 -115 -2
-221 -7 -234 -12 -22 -8 -23 -10 -7 -27 22 -24 12 -31 -50 -31 -49 0 -55 3
-86 40 -23 28 -37 37 -47 31 -23 -14 -5 -57 29 -71 17 -7 34 -19 39 -27 6 -12
47 -17 189 -24 246 -12 224 -1 446 -228 43 -44 97 -92 120 -105 54 -31 159
-56 239 -56 82 0 185 -17 211 -35 11 -8 32 -15 46 -15 38 0 96 -18 120 -38 22
-18 22 -18 -14 -57 -53 -57 -48 -83 23 -120 58 -31 101 -69 101 -91 0 -9 -16
-41 -35 -70 -19 -29 -35 -61 -35 -71 0 -28 87 -102 140 -118 14 -4 54 -31 90
-59 36 -28 85 -65 110 -81 25 -17 48 -34 51 -38 3 -5 29 -23 57 -40 76 -48
166 -110 177 -123 6 -6 35 -27 65 -48 30 -20 93 -64 140 -97 47 -32 99 -66
115 -74 17 -8 37 -19 45 -25 8 -5 26 -14 40 -20 14 -5 32 -14 40 -19 8 -5 26
-14 40 -20 26 -11 48 -24 92 -53 23 -16 46 -23 135 -45 46 -11 118 31 283 164
91 73 188 153 217 179 59 52 68 51 78 -9 4 -23 14 -55 22 -71 13 -24 13 -39 5
-77 -13 -55 -1 -103 29 -120 15 -8 19 -21 19 -69 0 -57 21 -119 56 -160 12
-15 35 -87 59 -190 7 -30 20 -68 29 -85 9 -16 16 -48 16 -70 0 -40 38 -163 57
-187 6 -7 14 -33 18 -58 13 -82 65 -139 128 -140 57 0 45 -19 -49 -79 -46 -30
-84 -58 -84 -62 0 -4 -10 -11 -21 -14 -12 -4 -85 -50 -163 -102 -78 -53 -148
-98 -156 -101 -8 -3 -40 -23 -70 -44 -30 -21 -63 -38 -72 -38 -9 0 -20 -5 -23
-10 -4 -6 -21 -17 -38 -25 -35 -16 -46 -23 -128 -76 -31 -20 -67 -40 -80 -44
-13 -4 -35 -16 -48 -26 -13 -11 -29 -19 -36 -19 -7 0 -18 -6 -24 -14 -7 -8
-23 -17 -36 -20 -71 -18 -271 -180 -345 -280 -19 -26 -72 -95 -117 -154 -45
-59 -89 -116 -97 -127 -53 -70 -147 -192 -158 -205 -8 -8 -27 -35 -43 -60 -17
-25 -33 -47 -36 -50 -8 -6 -179 -260 -179 -266 0 -2 -14 -23 -30 -46 -17 -24
-38 -54 -48 -68 -9 -14 -19 -27 -22 -30 -4 -4 -58 -85 -129 -195 -14 -22 -28
-42 -32 -45 -3 -3 -12 -15 -20 -27 -20 -28 -194 -217 -233 -252 -98 -87 -156
-148 -156 -164 0 -18 25 -64 44 -82 6 -5 25 -30 41 -55 17 -25 40 -53 53 -63
12 -10 22 -27 22 -38 0 -43 -206 -13 -318 47 -37 20 -96 53 -132 73 -36 20
-77 43 -92 51 -103 58 -149 93 -231 175 -88 87 -139 125 -169 125 -8 0 -29
-14 -47 -31 -32 -29 -33 -32 -28 -89 3 -32 12 -71 20 -87 8 -15 27 -55 42 -88
15 -33 31 -67 36 -75 5 -8 12 -22 15 -30 67 -160 180 -332 286 -437 88 -86
153 -123 217 -123 25 0 64 -7 86 -15 22 -8 57 -14 77 -15 51 0 55 -14 18 -60
-32 -40 -32 -40 -10 -75 12 -19 25 -35 28 -35 4 0 25 -17 48 -38 131 -120 135
-122 203 -122 71 0 92 11 168 87 69 69 197 211 221 245 22 31 65 -3 137 -109
58 -85 138 -96 191 -25 23 31 157 186 174 202 16 15 130 161 155 200 17 25 32
47 36 50 3 3 29 39 57 81 29 42 85 112 125 155 74 81 157 181 238 290 25 33
53 69 62 80 93 113 217 285 217 301 0 6 17 44 66 148 13 28 24 58 24 67 0 24
43 44 165 77 22 6 53 22 69 35 27 23 29 28 30 107 1 83 1 83 57 113 31 17 63
36 70 42 8 6 25 15 39 19 13 4 36 15 50 24 43 29 60 38 236 126 93 47 174 85
179 85 5 0 27 9 49 19 23 10 70 31 106 46 127 54 233 102 260 117 8 4 22 11
30 14 59 24 123 61 131 76 5 10 25 25 44 33 19 7 35 19 35 24 0 6 4 11 10 11
6 0 7 -23 3 -60 -4 -39 -2 -60 5 -60 5 0 15 -12 21 -27 10 -25 28 -59 53 -103
5 -8 15 -28 24 -45 8 -16 26 -48 39 -70 13 -22 34 -60 48 -85 13 -25 45 -82
70 -127 26 -45 47 -86 47 -90 0 -3 9 -16 19 -27 25 -27 76 -111 97 -158 9 -21
20 -38 24 -38 5 0 12 -10 16 -22 3 -12 21 -43 39 -69 19 -25 55 -86 81 -135
75 -142 163 -245 241 -286 36 -18 84 -43 106 -55 23 -12 61 -27 84 -34 23 -6
48 -17 54 -25 6 -8 17 -14 23 -14 6 0 34 -12 61 -25 28 -14 56 -25 63 -25 7 0
52 -18 100 -41 48 -23 107 -50 132 -61 25 -10 58 -26 73 -33 16 -8 34 -15 40
-15 7 0 28 -8 47 -19 19 -10 49 -21 67 -25 17 -4 37 -14 44 -22 6 -8 21 -14
33 -14 12 0 38 -9 59 -20 20 -11 45 -20 54 -20 9 0 35 -8 57 -19 23 -10 68
-31 101 -45 33 -15 67 -31 75 -36 8 -6 26 -16 40 -22 14 -7 46 -27 72 -45 26
-18 54 -33 61 -33 7 0 24 -8 37 -17 14 -10 37 -25 52 -33 14 -8 41 -23 60 -34
29 -17 101 -64 245 -163 82 -57 153 -56 213 0 19 18 40 42 46 52 11 19 11 19
22 -1 12 -23 32 -205 32 -295 0 -76 -33 -144 -116 -239 -73 -84 -144 -185
-144 -206 0 -7 10 -25 23 -40 22 -25 26 -26 58 -15 19 7 84 16 144 20 162 11
280 61 362 155 56 64 150 261 168 356 4 19 14 47 21 62 23 44 19 225 -6 288
-11 28 -20 62 -20 75 0 28 21 33 40 10 22 -27 65 -18 92 17 47 63 68 141 68
248 0 98 0 98 -46 144 -41 41 -130 96 -156 96 -6 0 -32 18 -58 40 -49 41 -119
56 -135 29 -4 -5 -18 -14 -31 -19 -13 -5 -24 -17 -24 -27 0 -10 -7 -27 -15
-37 -8 -11 -15 -34 -15 -52 0 -31 -21 -64 -40 -64 -5 0 -11 -10 -13 -22 -3
-18 -5 -16 -6 8 0 17 6 51 15 77 12 35 13 51 4 66 -16 31 3 61 39 61 17 0 31
6 35 16 13 33 20 29 -149 104 -253 113 -455 237 -624 383 -54 46 -60 50 -341
237 -107 71 -208 142 -224 157 -16 15 -52 39 -80 53 -51 25 -51 25 -48 81 4
58 -6 75 -43 79 -43 5 -66 -1 -82 -20 -17 -20 -67 -28 -77 -12 -3 5 -7 42 -10
83 -6 94 -22 132 -100 230 -77 98 -166 252 -173 299 -3 19 -14 49 -24 66 -11
18 -30 60 -43 95 -49 129 -68 176 -102 244 -19 39 -34 80 -34 92 0 12 -4 25
-10 28 -5 3 -15 25 -21 48 -6 23 -19 53 -29 67 -9 14 -20 43 -24 65 -8 45 -36
125 -60 170 -9 17 -16 34 -16 39 0 5 -7 16 -15 25 -36 38 -63 92 -75 152 -20
104 -23 139 -11 139 6 0 11 -7 11 -14 0 -8 10 -26 23 -40 21 -25 63 -83 111
-157 13 -20 29 -52 35 -72 15 -44 33 -60 63 -55 40 5 34 45 -23 154 -83 157
-236 470 -294 599 -14 33 -33 74 -40 90 -55 119 -65 148 -60 165 4 11 10 20
14 20 14 0 163 117 217 169 93 92 194 246 194 297 0 14 -34 74 -97 172 -32 49
-198 258 -232 293 -9 9 -41 44 -71 79 -30 35 -64 73 -75 84 -11 11 -31 35 -45
53 -50 64 -156 189 -190 223 -19 20 -71 78 -115 129 -44 51 -97 111 -118 134
-22 26 -39 56 -43 79 -13 74 -66 96 -237 97 -130 1 -221 25 -251 64 -13 18
-26 46 -30 62 -4 17 -25 74 -46 128 -22 53 -40 106 -40 116 0 10 26 52 58 92
93 121 99 131 116 209 12 52 26 84 47 108 33 37 32 66 -2 91 -12 8 -19 26 -19
45 0 17 -5 38 -10 46 -7 11 2 25 38 56 45 40 46 42 33 68 -18 33 -47 41 -99
26 -79 -21 -140 7 -251 115 -87 84 -223 185 -248 185 -6 0 -16 6 -22 14 -6 7
-31 16 -56 19 -25 4 -60 15 -78 24 -25 14 -57 18 -147 18 -105 0 -118 -2 -144
-22 -16 -13 -34 -23 -40 -23 -43 -2 -96 -98 -99 -178 -2 -52 0 -57 21 -60 24
-4 46 34 59 101 7 38 50 97 69 97 21 0 17 -33 -6 -53 -24 -20 -27 -67 -5 -67
8 0 32 16 52 35 79 72 100 85 139 85 56 0 77 -16 41 -29 -16 -6 -34 -11 -41
-11 -13 0 -96 -57 -149 -101 -58 -49 -13 -78 60 -39 47 25 59 25 114 1 24 -10
79 -22 121 -26 44 -4 82 -12 88 -20 6 -7 21 -16 33 -19 13 -3 31 -20 40 -38
20 -37 46 -85 59 -108 26 -47 22 -61 -12 -37 -26 18 -57 11 -71 -15 -10 -19
20 -58 65 -83 15 -9 16 -14 5 -37 -6 -15 -20 -30 -31 -33 -57 -19 -96 -83 -66
-113 17 -17 68 -15 87 2 28 26 106 42 135 28 66 -30 3 -182 -81 -198 -39 -7
-47 -17 -38 -45 6 -19 12 -21 54 -15 64 8 87 -15 96 -99 7 -60 7 -60 -35 -90
-23 -16 -53 -40 -67 -52 -14 -13 -31 -23 -37 -24 -6 0 -31 -16 -56 -35 -25
-19 -53 -37 -62 -40 -10 -4 -18 -10 -18 -15 0 -5 -17 -17 -39 -28 -45 -24 -91
-74 -91 -102 0 -23 -54 -122 -77 -140 -22 -19 -46 14 -62 86 -13 56 -13 57 15
86 15 16 34 29 41 29 14 0 134 79 145 96 4 6 20 17 35 23 61 26 113 141 64
141 -10 0 -30 -15 -44 -32 -31 -42 -85 -98 -93 -98 -11 0 -104 -63 -104 -71 0
-4 -15 -11 -32 -14 -18 -4 -38 -11 -44 -16 -23 -19 -151 -33 -191 -21 -81 25
-153 114 -156 196 -2 47 -15 44 127 25 145 -19 226 7 329 106 39 38 57 63 57
80 0 40 -49 34 -111 -15 -60 -48 -80 -49 -137 -10 -33 22 -51 28 -72 23 -20
-4 -38 1 -58 16 -17 11 -35 21 -41 21 -6 0 -28 15 -48 34 -59 52 -71 55 -171
49 -92 -6 -92 -6 -92 22 0 29 61 95 189 206 57 49 71 92 37 111 -24 13 -20 58
9 100 35 52 33 68 -11 68 -26 0 -43 -8 -64 -29 -44 -44 -47 -71 -11 -104 48
-43 41 -59 -58 -132 -136 -100 -181 -156 -181 -224 0 -53 28 -74 105 -77 79
-4 84 -7 60 -34 -34 -37 -103 -64 -139 -53 -36 11 -70 2 -79 -21 -9 -23 -1
-38 39 -68 45 -34 106 -43 178 -27 34 7 60 9 65 3 5 -5 13 -45 18 -89 8 -63
17 -90 42 -127 34 -51 80 -93 110 -103 31 -9 32 -33 6 -85 -29 -58 -33 -143
-11 -224 39 -137 37 -164 -13 -219 -16 -18 -52 -59 -81 -92 -80 -90 -314 -327
-346 -350 -36 -25 -124 -64 -145 -65 -14 0 -132 86 -149 108 -18 24 -268 224
-362 290 -49 34 -136 110 -200 174 -57 58 -57 58 -102 38 -25 -10 -54 -28 -65
-39 -26 -26 -32 -26 -80 -2 -44 23 -56 36 -65 72 -3 15 -12 29 -20 32 -22 9
-64 -29 -72 -66 -3 -17 -15 -43 -25 -56 -11 -13 -19 -30 -19 -37 0 -7 -16 -40
-35 -73 -19 -32 -35 -64 -35 -69 0 -5 -7 -15 -15 -22 -14 -11 -89 9 -142 40
-71 40 -228 69 -371 70 -73 0 -101 4 -133 20 -62 32 -135 110 -148 158 -7 23
-16 44 -21 47 -6 3 -10 10 -10 16 0 17 25 9 49 -17 29 -30 148 -110 186 -124
15 -6 53 -10 86 -10 62 0 78 9 115 65 16 25 22 27 66 23 27 -3 54 -12 61 -20
15 -19 105 -48 146 -48 69 0 127 65 98 111 -6 10 -9 20 -7 23 7 6 214 17 400
21 326 7 427 19 487 59 40 26 42 48 7 75 -23 18 -41 21 -129 21 -56 0 -150 3
-209 7 -97 5 -109 8 -116 27 -20 51 -205 176 -260 176 -6 0 -22 7 -35 16 -17
11 -36 14 -59 10 -31 -6 -35 -4 -40 21 -13 56 -4 436 11 465 7 15 13 38 13 51
0 15 10 31 25 41 14 9 25 24 25 33 0 15 7 33 48 123 7 14 16 32 21 40 6 8 20
38 32 65 28 61 120 205 131 205 4 0 8 5 8 11 0 6 9 23 21 37 83 109 99 131 99
140 0 5 7 15 15 22 8 7 15 19 15 26 0 8 16 34 35 60 39 51 38 64 -5 64 -16 0
-32 5 -35 11 -9 14 13 66 31 73 28 11 13 26 -25 26 -55 0 -68 19 -39 62 41 60
113 148 120 148 5 0 8 16 8 35 0 48 -17 45 -76 -11z m-346 -270 c46 -5 52 -8
52 -28 0 -13 -9 -31 -20 -41 -11 -10 -20 -24 -20 -32 0 -7 -8 -21 -19 -32 -17
-17 -32 -18 -177 -14 -93 2 -178 10 -204 18 -25 7 -66 16 -92 20 -25 3 -52 12
-58 20 -6 7 -25 17 -41 20 -84 19 47 59 236 74 114 8 228 7 343 -5z m222 -39
c21 -25 4 -60 -39 -79 -49 -23 -75 -18 -80 14 -7 49 88 102 119 65z m-777 -99
c12 -8 40 -17 61 -21 21 -3 48 -12 60 -20 22 -14 172 -35 249 -35 86 0 128
-36 72 -62 -26 -12 -65 -65 -65 -88 0 -7 -22 -37 -50 -67 -54 -59 -61 -86 -33
-131 25 -38 32 -42 89 -42 69 0 105 15 129 53 22 35 65 50 65 23 0 -9 -11 -26
-25 -38 -14 -12 -25 -26 -25 -32 0 -5 -19 -32 -42 -59 -37 -45 -40 -51 -25
-62 21 -15 21 -43 2 -69 -8 -11 -18 -41 -21 -68 -8 -57 -25 -84 -48 -75 -16 6
-16 10 -22 143 -1 31 -11 54 -38 89 -20 26 -36 54 -36 61 0 7 -8 21 -19 31
-10 10 -37 54 -61 97 -44 83 -67 115 -192 275 -43 54 -78 101 -78 105 0 11 30
6 53 -8z m864 -32 c4 -11 -10 -31 -46 -64 -28 -26 -51 -51 -51 -56 0 -6 -28
-41 -63 -78 -64 -69 -64 -69 -91 -22 -30 52 -29 56 17 72 46 16 40 37 -13 50
-39 9 -45 15 -48 38 -3 27 -2 28 40 26 118 -7 166 -1 195 25 33 29 51 31 60 9z
m-403 -311 c10 -25 -17 -47 -48 -39 -25 6 -35 33 -19 49 13 14 61 7 67 -10z
m2639 -63 c12 -14 29 -20 58 -20 46 0 79 -14 79 -34 0 -24 -31 -27 -64 -7 -17
10 -42 22 -56 26 -27 8 -60 33 -60 47 0 15 25 8 43 -12z m-28 -116 c28 -16 60
-25 87 -26 23 0 51 -3 61 -7 18 -7 18 -8 -1 -31 -20 -25 -21 -25 -50 -7 -17 9
-46 17 -64 17 -22 0 -48 10 -71 28 -67 51 -38 71 38 26z m230 -33 c7 -12 -31
-25 -46 -15 -8 4 -7 9 2 15 18 11 36 11 44 0z m-179 -696 c13 -33 20 -69 17
-80 -3 -11 -58 -72 -122 -136 -130 -130 -211 -222 -211 -238 0 -6 -5 -11 -11
-11 -7 0 -9 11 -4 33 10 47 6 153 -7 226 -12 63 -12 63 18 90 28 24 84 61 153
101 55 32 86 55 94 68 19 30 50 8 73 -53z m-708 -249 c4 -50 -13 -69 -36 -41
-9 11 -32 31 -50 43 -42 31 -32 44 31 40 52 -3 52 -3 55 -42z m-3216 -122 c21
-4 35 -10 32 -15 -7 -12 -121 -12 -128 0 -12 18 33 25 96 15z m436 -10 c61
-13 -3 -22 -138 -19 -149 3 -185 9 -159 26 14 8 253 3 297 -7z m140 -11 c2 -8
-5 -13 -17 -13 -21 0 -35 13 -24 24 10 10 36 3 41 -11z m-270 -69 c29 -20 28
-34 -2 -34 -26 0 -51 24 -41 40 8 14 17 13 43 -6z m396 -35 c30 -14 39 -34 26
-59 -17 -31 -45 -32 -104 -4 -97 46 -100 74 -6 74 33 0 70 -5 84 -11z m411 -9
c10 -16 -14 -49 -41 -56 -18 -5 -34 0 -52 13 -15 11 -37 23 -50 27 -12 4 -22
12 -22 17 0 12 157 12 165 -1z m2303 -31 c57 -20 52 -63 -8 -73 -69 -11 -126
37 -83 69 22 17 50 19 91 4z m-178 -44 c-12 -15 -40 -21 -40 -9 0 3 10 17 23
30 17 18 23 20 25 8 2 -8 -2 -21 -8 -29z m-1773 -130 c8 -8 17 -15 21 -15 4 0
13 -4 21 -9 17 -11 5 -35 -53 -107 -23 -28 -48 -62 -56 -74 -8 -13 -24 -35
-36 -49 -11 -14 -33 -47 -48 -73 -29 -50 -45 -58 -65 -34 -7 8 -23 17 -36 20
-29 7 -32 29 -7 54 9 10 24 29 32 42 8 12 25 35 37 50 12 14 25 40 29 56 4 16
22 49 41 73 18 24 33 49 33 55 0 36 55 43 87 11z m1871 -227 c3 -51 -14 -74
-48 -63 -27 8 -26 48 1 86 28 40 43 32 47 -23z m-208 -37 c0 -22 -16 -36 -24
-22 -8 12 3 41 15 41 5 0 9 -9 9 -19z m1121 -52 c27 -28 49 -54 49 -58 0 -4
18 -26 40 -49 84 -85 34 -85 -56 1 -68 65 -104 113 -104 141 0 27 19 18 71
-35z m-1161 -209 c0 -16 -4 -30 -10 -30 -5 0 -10 14 -10 30 0 17 5 30 10 30 6
0 10 -13 10 -30z m1326 22 c13 -9 37 -52 29 -52 -22 0 -64 35 -65 53 0 9 22 9
36 -1z m289 -118 c39 -8 86 -14 107 -14 31 0 39 -5 57 -36 23 -39 21 -55 -3
-35 -16 14 -65 16 -112 6 -26 -6 -41 -1 -85 30 -29 20 -60 46 -68 57 -14 20
-13 21 10 14 13 -4 56 -14 94 -22z m-1383 -35 c23 -30 12 -73 -20 -81 -27 -8
-42 10 -42 48 0 68 26 82 62 33z m1182 -24 c11 -8 28 -15 39 -15 57 0 297
-257 352 -377 8 -17 19 -34 24 -37 5 -4 13 -21 17 -38 3 -18 13 -42 20 -53 7
-11 18 -38 23 -60 17 -65 49 -178 60 -210 6 -16 14 -68 20 -115 14 -123 46
-316 65 -385 9 -32 16 -74 16 -92 0 -19 7 -50 15 -70 8 -19 15 -46 15 -58 0
-13 9 -69 20 -125 11 -56 20 -108 20 -116 0 -8 -33 -30 -76 -50 -65 -31 -79
-35 -100 -25 -54 24 -346 -6 -375 -39 -9 -10 -32 -29 -51 -42 -19 -13 -55 -40
-80 -61 -25 -20 -50 -37 -55 -37 -15 0 -53 170 -53 237 0 18 -5 44 -11 60 -11
26 -24 118 -48 324 -18 151 -64 420 -79 464 -12 33 -36 120 -57 205 -18 71
-54 172 -66 184 -5 6 -9 16 -9 23 0 34 -65 147 -115 201 -73 79 -83 106 -47
129 15 10 29 20 32 24 15 17 109 38 138 30 32 -10 215 -185 288 -276 63 -79
154 -227 169 -275 4 -12 18 -38 31 -57 13 -20 24 -39 24 -43 0 -4 10 -10 21
-13 20 -5 21 -3 16 38 -4 24 -15 60 -26 82 -10 21 -31 63 -46 93 -43 86 -58
111 -94 164 -31 45 -135 162 -169 190 -7 6 -21 19 -30 29 -9 9 -20 17 -25 17
-5 0 -22 11 -39 25 -16 14 -36 25 -44 25 -18 0 -19 49 -1 51 6 1 19 3 27 3 37
3 129 38 161 60 40 29 57 31 83 11z m-950 -400 c12 -7 37 -16 57 -19 38 -7 49
-23 49 -73 0 -12 6 -42 13 -65 24 -75 55 -191 70 -258 16 -70 7 -102 -33 -115
-10 -3 -21 -12 -24 -20 -3 -8 -12 -15 -20 -15 -8 0 -27 -11 -43 -23 -16 -14
-61 -31 -106 -42 -79 -18 -79 -18 -115 17 -21 20 -58 56 -83 80 -62 57 -92
130 -78 183 11 40 3 68 -32 110 -33 41 -30 58 22 118 3 5 26 13 50 18 50 12
99 53 99 84 0 38 19 47 89 40 36 -4 74 -13 85 -20z m243 -46 c16 -34 43 -151
53 -234 5 -38 16 -86 24 -105 43 -106 69 -209 56 -225 -41 -49 -96 19 -109
136 -12 112 -40 247 -57 282 -22 42 -31 157 -13 168 20 12 32 6 46 -22z m417
-591 c3 -18 14 -98 26 -178 12 -80 27 -176 35 -215 35 -177 32 -197 -35 -215
-20 -5 -47 -19 -60 -30 -13 -11 -32 -20 -43 -20 -11 0 -29 -8 -39 -17 -24 -22
-32 -12 -52 67 -18 74 -38 430 -28 500 6 39 11 45 37 50 38 9 92 42 111 69 22
31 42 26 48 -11z m476 -918 c0 -5 -7 -10 -15 -10 -8 0 -15 5 -15 10 0 6 7 10
15 10 8 0 15 -4 15 -10z m2198 -1807 c5 -18 -10 -16 -34 2 -18 15 -18 15 5 13
14 -2 26 -9 29 -15z m962 -551 c19 -11 47 -22 63 -26 15 -3 27 -11 27 -16 0
-5 18 -19 39 -31 50 -28 68 -66 52 -110 -6 -18 -11 -42 -11 -53 0 -12 -11 -38
-25 -59 -21 -30 -32 -37 -58 -37 -89 -1 -100 -22 -102 -214 -2 -152 -12 -213
-57 -346 -16 -47 -35 -105 -43 -130 -52 -167 -92 -218 -200 -249 -75 -22 -205
-39 -205 -26 0 4 24 33 54 65 140 152 182 296 141 490 -8 39 -18 116 -22 171
-6 92 -4 102 15 129 12 16 22 34 22 39 0 6 6 14 14 18 43 24 146 218 146 275
0 21 47 108 65 120 17 13 49 9 85 -10z m-7648 -64 c52 -41 107 -78 132 -89 12
-5 28 -13 36 -19 8 -5 44 -23 80 -40 36 -17 90 -44 120 -60 119 -62 141 -69
258 -85 91 -13 129 -14 158 -6 79 22 99 16 148 -45 26 -31 46 -59 46 -64 0 -4
43 -51 95 -104 52 -53 95 -103 95 -111 0 -8 -40 -57 -88 -107 -48 -51 -94
-102 -102 -113 -26 -36 -131 -115 -143 -108 -83 51 -147 105 -147 125 0 7 5
29 10 49 7 23 7 46 1 61 -13 36 -80 77 -136 85 -27 3 -60 12 -75 20 -14 7 -44
13 -67 13 -41 0 -64 13 -128 75 -56 54 -208 270 -234 333 -7 17 -17 32 -21 32
-5 0 -13 12 -19 28 -6 15 -26 54 -45 87 -51 87 -44 99 26 43z M8716 8917 c-21
-15 -18 -46 4 -57 8 -5 40 -14 70 -20 30 -7 71 -21 90 -31 42 -23 64 -24 80
-4 19 23 -12 61 -79 96 -59 32 -134 39 -165 16z M8744 8790 c-43 -17 -54 -46
-35 -95 21 -56 24 -59 57 -51 25 7 26 9 20 57 -5 33 -3 56 4 64 23 28 -4 42
-46 25z M4330 8725 c0 -8 6 -19 13 -24 57 -47 116 -88 157 -108 14 -7 32 -17
40 -21 8 -5 38 -19 65 -32 28 -12 67 -31 87 -41 20 -11 43 -19 50 -19 8 0 31
-9 51 -19 21 -11 57 -23 80 -26 23 -4 51 -13 62 -20 11 -7 39 -16 63 -20 23
-4 55 -13 70 -20 15 -7 55 -16 89 -19 35 -4 75 -13 90 -21 16 -8 53 -15 83
-16 30 0 80 -5 110 -10 133 -23 208 -30 258 -24 76 9 54 25 -49 34 -47 4 -95
13 -107 20 -13 7 -67 17 -119 22 -53 6 -105 15 -116 21 -12 6 -56 15 -100 19
-43 5 -91 15 -105 23 -15 7 -49 17 -76 21 -27 4 -59 13 -70 20 -12 7 -42 16
-68 19 -25 4 -51 13 -58 20 -6 8 -30 17 -55 20 -24 4 -48 13 -55 20 -6 8 -26
17 -44 20 -19 4 -39 13 -46 21 -7 8 -23 15 -35 15 -12 0 -34 9 -48 20 -14 11
-32 20 -40 20 -8 0 -20 7 -27 16 -8 8 -27 22 -44 30 -17 7 -44 23 -61 33 -37
24 -45 25 -45 6z M7524 8546 c-11 -8 -42 -17 -69 -21 -28 -4 -63 -13 -80 -21
-16 -7 -59 -18 -95 -25 -36 -7 -74 -18 -85 -25 -11 -7 -37 -16 -57 -19 -71
-13 -41 -27 45 -22 124 8 334 56 368 84 9 8 30 18 45 22 16 4 30 15 32 24 4
22 -74 24 -104 3z M8643 8433 c-17 -6 -16 -23 0 -23 8 0 22 -9 32 -20 32 -36
62 -20 51 26 -5 19 -12 24 -39 23 -17 0 -38 -3 -44 -6z"/>
</g>
</svg>
